<svg xmlns="http://www.w3.org/2000/svg" width="28.008" height="22" viewBox="0 0 28.008 22">
  <defs>
    <style>
      .cls-1, .cls-2 {
        fill: none;
        stroke: #fff;
        stroke-miterlimit: 10;
      }

      .cls-1 {
        stroke-linecap: round;
      }
    </style>
  </defs>
  <g id="Page_1" data-name="Page 1" transform="translate(0.5 0.5)">
    <path id="Stroke_1" data-name="Stroke 1" class="cls-1" d="M1.576,0H17.409c.4,0,.681.307.565.612L15.032,8.329A1.182,1.182,0,0,1,13.9,9H0" transform="translate(9 3)"/>
    <path id="Stroke_3" data-name="Stroke 3" class="cls-1" d="M24,16H10.956a1.211,1.211,0,0,1-1.162-.853L5.717.853A1.211,1.211,0,0,0,4.555,0H0"/>
    <path id="Stroke_5" data-name="Stroke 5" class="cls-2" d="M4,1.5C4,2.329,3.1,3,2,3S0,2.329,0,1.5.9,0,2,0,4,.671,4,1.5Z" transform="translate(10 18)"/>
    <path id="Stroke_7" data-name="Stroke 7" class="cls-2" d="M4,1.5C4,2.329,3.1,3,2,3S0,2.329,0,1.5.9,0,2,0,4,.671,4,1.5Z" transform="translate(20 18)"/>
  </g>
</svg>
